<svg width="20" height="20" viewBox="0 0 20 20" fill="none" xmlns="http://www.w3.org/2000/svg">
<path d="M17.5 13.8333C17.5 14.9379 16.6046 15.8333 15.5 15.8333L4.5 15.8333C3.39543 15.8333 2.5 14.9379 2.5 13.8333L2.5 6.16665C2.5 5.06208 3.39543 4.16665 4.5 4.16665L7.47553 4.16665C8.11877 4.16665 8.72275 4.47603 9.0986 4.99804L9.7007 5.83428C9.88862 6.09529 10.1906 6.24998 10.5122 6.24998L15.5 6.24998C16.6046 6.24998 17.5 7.14541 17.5 8.24998L17.5 13.8333Z" stroke="#D5AA3D" stroke-width="1.5"/>
<rect x="11.6665" y="12.5" width="3.33333" height="0.833333" fill="#D5AA3D"/>
<rect x="11.6665" y="14.1667" width="3.33333" height="0.833333" fill="#D5AA3D"/>
<rect x="11.6665" y="10.8333" width="3.33333" height="0.833333" fill="#D5AA3D"/>
<rect x="11.6665" y="9.16669" width="3.33333" height="0.833333" fill="#D5AA3D"/>
<rect x="11.6665" y="7.5" width="3.33333" height="0.833333" fill="#D5AA3D"/>
<path d="M13.3335 6.66669L13.3335 15.8334" stroke="#D5AA3D" stroke-linecap="round"/>
</svg>
