<svg width="20" height="20" viewBox="0 0 20 20" fill="none" xmlns="http://www.w3.org/2000/svg">
<path d="M17.5 12.1667H16.75H17.5ZM17.5 4.5H18.25H17.5ZM6.66667 14.1667H7.41667V13.4167H6.66667V14.1667ZM8.37378 16.6262L7.84345 16.0959L8.37378 16.6262ZM10.8333 14.1667V13.4167H10.5227L10.303 13.6363L10.8333 14.1667ZM16.75 12.1667C16.75 12.857 16.1904 13.4167 15.5 13.4167V14.9167C17.0188 14.9167 18.25 13.6854 18.25 12.1667H16.75ZM16.75 4.5L16.75 12.1667H18.25L18.25 4.5H16.75ZM15.5 3.25C16.1904 3.25 16.75 3.80964 16.75 4.5H18.25C18.25 2.98122 17.0188 1.75 15.5 1.75V3.25ZM4.5 3.25H15.5V1.75H4.5V3.25ZM3.25 4.5C3.25 3.80965 3.80965 3.25 4.5 3.25V1.75C2.98122 1.75 1.75 2.98122 1.75 4.5H3.25ZM3.25 12.1667V4.5H1.75V12.1667H3.25ZM4.5 13.4167C3.80964 13.4167 3.25 12.857 3.25 12.1667H1.75C1.75 13.6854 2.98122 14.9167 4.5 14.9167V13.4167ZM6.66667 13.4167H4.5V14.9167H6.66667V13.4167ZM7.41667 15.9191V14.1667H5.91667V15.9191H7.41667ZM7.84345 16.0959C7.68595 16.2534 7.41667 16.1418 7.41667 15.9191H5.91667C5.91667 17.4782 7.80167 18.259 8.90411 17.1566L7.84345 16.0959ZM10.303 13.6363L7.84345 16.0959L8.90411 17.1566L11.3637 14.697L10.303 13.6363ZM15.5 13.4167H10.8333V14.9167H15.5V13.4167Z" fill="#CACACA"/>
<path d="M6.66663 6.66663L13.3333 6.66663" stroke="#CACACA" stroke-width="1.5" stroke-linecap="round" stroke-linejoin="round"/>
<path d="M6.66663 10L13.3333 10" stroke="#CACACA" stroke-width="1.5" stroke-linecap="round" stroke-linejoin="round"/>
</svg>
