<svg width="20" height="20" viewBox="0 0 20 20" fill="none" xmlns="http://www.w3.org/2000/svg">
<path d="M3.62622 13.0404L4.15655 13.5707L3.62622 13.0404ZM6.95955 16.3737L7.48988 16.9041L6.95955 16.3737ZM15.8839 3.61117L16.3888 4.11608L17.4494 3.05542L16.9445 2.55051L15.8839 3.61117ZM16.3888 5.88384L6.42922 15.8434L7.48988 16.9041L17.4494 6.9445L16.3888 5.88384ZM6.25245 15.9166H4.33333V17.4166H6.25245V15.9166ZM4.08333 15.6666V13.7475H2.58333V15.6666H4.08333ZM4.15655 13.5707L14.1161 3.61117L13.0555 2.55051L3.09589 12.5101L4.15655 13.5707ZM4.08333 13.7475C4.08333 13.6812 4.10967 13.6176 4.15655 13.5707L3.09589 12.5101C2.7677 12.8383 2.58333 13.2834 2.58333 13.7475H4.08333ZM4.33333 15.9166C4.19526 15.9166 4.08333 15.8047 4.08333 15.6666H2.58333C2.58333 16.6331 3.36683 17.4166 4.33333 17.4166V15.9166ZM6.42922 15.8434C6.38234 15.8903 6.31875 15.9166 6.25245 15.9166V17.4166C6.71658 17.4166 7.16169 17.2323 7.48988 16.9041L6.42922 15.8434ZM16.3888 4.11608C16.8769 4.60423 16.8769 5.39569 16.3888 5.88384L17.4494 6.9445C18.5234 5.87056 18.5234 4.12936 17.4494 3.05542L16.3888 4.11608ZM16.9445 2.55051C15.8706 1.47657 14.1294 1.47657 13.0555 2.55051L14.1161 3.61117C14.6043 3.12301 15.3957 3.12301 15.8839 3.61117L16.9445 2.55051Z" fill="#CACACA"/>
<path d="M12.5 4.16663L15.8333 7.49996" stroke="#CACACA" stroke-width="1.5" stroke-linecap="round"/>
</svg>
