<svg width="20" height="20" viewBox="0 0 20 20" fill="none" xmlns="http://www.w3.org/2000/svg">
<rect x="17.5" y="2.5" width="15" height="15" rx="2" transform="rotate(90 17.5 2.5)" stroke="#EF6767" stroke-width="1.5"/>
<path fill-rule="evenodd" clip-rule="evenodd" d="M14.7093 12.9475C14.9813 12.954 15.2509 12.8942 15.495 12.773L15.4834 12.7148C15.6124 12.5497 15.7283 12.3746 15.83 12.1912C15.8434 12.0127 15.8158 11.8335 15.7492 11.6676C15.4834 11.237 14.7901 11.0625 13.7502 11.0625C13.5733 11.0625 13.4016 11.0811 13.2226 11.1006C13.0276 11.1218 12.8237 11.1439 12.5948 11.1439C12.3227 10.9913 12.0638 10.8162 11.8206 10.6203C11.2406 9.97804 10.7999 9.22111 10.5265 8.39778V8.31633C10.8731 7.18761 11.1273 5.77963 10.5265 5.17454C10.3672 5.08029 10.1901 5.02082 10.0065 5H9.83322C9.48658 5 9.22082 5.34909 9.13994 5.69817C8.84424 6.64895 8.90593 7.67601 9.31325 8.58396C9.05636 9.45226 8.7358 10.3002 8.35423 11.1207C8.1158 11.5117 7.92958 11.834 7.76242 12.1233C7.64605 12.3247 7.53893 12.5101 7.42986 12.6915C7.24087 12.7867 7.07936 12.8819 6.94345 12.9619C6.83008 13.0287 6.73453 13.085 6.6557 13.1221C5.89248 13.5006 5.3015 14.1582 5.00339 14.9606C4.98888 15.1103 5.0212 15.2609 5.09583 15.3912V15.4842L5.52335 15.7402C5.60423 15.8333 5.69667 15.8333 5.86998 15.8333C6.56326 15.8333 7.42986 14.9606 8.46977 13.1221C8.56221 13.0406 8.56221 13.0406 8.64309 13.0406C9.76404 12.6592 10.9291 12.4245 12.1095 12.3425C12.9234 12.7282 13.8098 12.9345 14.7093 12.9475ZM8.98973 11.4697C9.31961 10.7895 9.60899 10.0901 9.85632 9.37522V9.36359C10.1959 10.0928 10.6354 10.7704 11.162 11.3767C11.2596 11.4872 11.3772 11.5781 11.5086 11.6443C10.527 11.793 9.56555 12.0546 8.64309 12.4239H8.46977C8.55643 12.2494 8.64309 12.0981 8.72975 11.9468C8.81641 11.7956 8.90307 11.6443 8.98973 11.4697ZM13.496 11.7839C14.7093 11.7839 15.0559 11.9934 15.1483 12.0748C15.1406 12.0931 15.1397 12.1136 15.1459 12.1324C15.1521 12.1513 15.1649 12.1672 15.1819 12.1772C15.199 12.1872 15.219 12.1906 15.2384 12.1868C15.2577 12.1829 15.275 12.1721 15.287 12.1563V12.2261H14.975C14.4013 12.186 13.8405 12.0359 13.3227 11.7839H13.496ZM6.75969 13.6457C6.8924 13.5386 7.04043 13.4523 7.19876 13.3897C6.64414 14.437 6.12419 14.9606 5.60423 15.0421C5.89299 14.5036 6.28586 14.0288 6.75969 13.6457ZM9.94876 6.57089C9.92168 6.84053 9.86351 7.10607 9.77544 7.36216C9.60028 6.73432 9.60028 6.07001 9.77544 5.44218C9.79689 5.44218 9.81747 5.4336 9.83263 5.41832C9.8478 5.40304 9.85632 5.38233 9.85632 5.36072L9.94876 5.44218V5.52363C10.0369 5.81173 10.0369 6.11989 9.94876 6.40798V6.57089Z" fill="#EF6767"/>
</svg>
