<svg width="20" height="160" viewBox="0 0 20 160" fill="none" xmlns="http://www.w3.org/2000/svg">
<rect x="17.5" y="2.5" width="15" height="15" rx="2" transform="rotate(90 17.5 2.5)" stroke="#418DD3" stroke-width="1.5"/>
<path d="M7.08097 14.1667L5 6.89395H6.67969L7.88352 11.9472H7.94389L9.27202 6.89395H10.7102L12.0348 11.9579H12.0987L13.3026 6.89395H14.9822L12.9013 14.1667H11.4027L10.0178 9.41171H9.96094L8.57955 14.1667H7.08097Z" fill="#418DD3"/>
<rect x="17.5" y="22.5" width="15" height="15" rx="2" transform="rotate(90 17.5 22.5)" stroke="#81C3F2" stroke-width="1.5"/>
<g clip-path="url(#clip0_149_2342)">
<path d="M10.0001 28.8238C9.86368 28.8097 9.72573 28.8235 9.5952 28.8643C9.46466 28.9051 9.34448 28.972 9.24244 29.0606C9.1404 29.1493 9.0588 29.2577 9.00295 29.3788C8.94709 29.4999 8.91822 29.6311 8.91822 29.7637C8.91822 29.8963 8.94709 30.0274 9.00295 30.1486C9.0588 30.2697 9.1404 30.3781 9.24244 30.4667C9.34448 30.5554 9.46466 30.6223 9.5952 30.6631C9.72573 30.7039 9.86368 30.7177 10.0001 30.7035C10.1365 30.7177 10.2744 30.7039 10.405 30.6631C10.5355 30.6223 10.6557 30.5554 10.7577 30.4667C10.8598 30.3781 10.9414 30.2697 10.9972 30.1486C11.0531 30.0274 11.0819 29.8963 11.0819 29.7637C11.0819 29.6311 11.0531 29.4999 10.9972 29.3788C10.9414 29.2577 10.8598 29.1493 10.7577 29.0606C10.6557 28.972 10.5355 28.9051 10.405 28.8643C10.2744 28.8235 10.1365 28.8097 10.0001 28.8238ZM10.0001 27.7497C10.5263 27.7869 11.0185 28.0152 11.3778 28.3888C11.737 28.7624 11.9367 29.2536 11.9367 29.7637C11.9367 30.2738 11.737 30.765 11.3778 31.1386C11.0185 31.5122 10.5263 31.7405 10.0001 31.7777C9.47383 31.7405 8.98163 31.5122 8.62238 31.1386C8.26313 30.765 8.06344 30.2738 8.06344 29.7637C8.06344 29.2536 8.26313 28.7624 8.62238 28.3888C8.98163 28.0152 9.47383 27.7869 10.0001 27.7497ZM10.0001 32.0462C10.2211 32.0462 10.4331 32.1311 10.5893 32.2821C10.7456 32.4332 10.8334 32.6381 10.8334 32.8518C10.8334 33.0654 10.7456 33.2703 10.5893 33.4214C10.4331 33.5725 10.2211 33.6574 10.0001 33.6574C9.77907 33.6574 9.56711 33.5725 9.41083 33.4214C9.25455 33.2703 9.16675 33.0654 9.16675 32.8518C9.16675 32.6381 9.25455 32.4332 9.41083 32.2821C9.56711 32.1311 9.77907 32.0462 10.0001 32.0462ZM7.77786 32.3147V33.9259H13.3334V35H6.66675V32.3147H7.77786ZM13.3334 27.3093H6.66675V26.2352H13.3334V27.3093ZM9.43341 27.3093V25H10.5445V27.2879L9.43341 27.3093Z" fill="#81C3F2"/>
<path fill-rule="evenodd" clip-rule="evenodd" d="M9.22516 24.7917H10.7529V26.0269H13.5418V27.5177H9.43551L9.22516 27.5218V27.5177H6.4585V26.0269H9.22516V24.7917ZM9.22516 26.4436H6.87516V27.101H9.22516V26.4436ZM10.7529 27.101H13.1252V26.4436H10.7529V27.101ZM10.3363 26.4436H9.64183V27.0969L10.3363 27.0835V26.4436ZM10.3363 26.0269H9.64183V25.2083H10.3363V26.0269ZM10.0002 27.5409L10.0148 27.5419C10.5915 27.5827 11.1323 27.8329 11.528 28.2444C11.9239 28.6561 12.1451 29.1988 12.1451 29.7637C12.1451 30.3286 11.9239 30.8713 11.528 31.283C11.2258 31.5973 10.8389 31.8175 10.4161 31.9222C10.5333 31.9719 10.6414 32.0427 10.7342 32.1324C10.9303 32.3219 11.0418 32.5805 11.0418 32.8518C11.0418 33.123 10.9303 33.3816 10.7342 33.5712C10.6758 33.6277 10.6113 33.6766 10.5423 33.7176H13.5418V35.2083H6.4585V32.1064H7.98627V33.7176H9.45798C9.38898 33.6766 9.32451 33.6277 9.26611 33.5712C9.07002 33.3816 8.9585 33.123 8.9585 32.8518C8.9585 32.5805 9.07002 32.3219 9.26611 32.1324C9.3589 32.0427 9.46702 31.9719 9.58426 31.9222C9.1614 31.8175 8.77453 31.5973 8.47229 31.283C8.07639 30.8713 7.85519 30.3286 7.85519 29.7637C7.85519 29.1988 8.07639 28.6561 8.47229 28.2444C8.868 27.8329 9.40879 27.5827 9.98548 27.5419L10.0002 27.5409ZM10.0002 27.9586C9.52992 27.9954 9.09211 28.201 8.77263 28.5332C8.45003 28.8687 8.27185 29.3084 8.27185 29.7637C8.27185 30.219 8.45003 30.6587 8.77263 30.9942C9.09211 31.3264 9.52992 31.532 10.0002 31.5688C10.4704 31.532 10.9082 31.3264 11.2277 30.9942C11.5503 30.6587 11.7285 30.219 11.7285 29.7637C11.7285 29.3084 11.5503 28.8687 11.2277 28.5332C10.9082 28.201 10.4704 27.9954 10.0002 27.9586ZM10.0002 28.6146C10.1576 28.6011 10.3164 28.6184 10.4672 28.6655C10.6248 28.7147 10.7704 28.7957 10.8944 28.9034C11.0184 29.0111 11.1181 29.1433 11.1865 29.2916C11.2549 29.4399 11.2904 29.6008 11.2904 29.7637C11.2904 29.9266 11.2549 30.0875 11.1865 30.2358C11.1181 30.3841 11.0184 30.5163 10.8944 30.624C10.7704 30.7317 10.6248 30.8127 10.4672 30.8619C10.3164 30.9091 10.1576 30.9263 10.0002 30.9128C9.8427 30.9263 9.68389 30.9091 9.53313 30.8619C9.3755 30.8127 9.22988 30.7317 9.10589 30.624C8.98188 30.5163 8.88223 30.3841 8.81384 30.2358C8.74544 30.0875 8.70997 29.9266 8.70997 29.7637C8.70997 29.6008 8.74544 29.4399 8.81384 29.2916C8.88223 29.1433 8.98188 29.0111 9.10589 28.9034C9.22988 28.7957 9.3755 28.7147 9.53313 28.6655C9.68389 28.6184 9.8427 28.6011 10.0002 28.6146ZM9.97872 29.0311C9.87038 29.0199 9.76087 29.0308 9.65743 29.0632C9.55399 29.0955 9.45923 29.1484 9.37915 29.2179C9.29909 29.2875 9.23554 29.3721 9.19221 29.4661C9.14889 29.56 9.12664 29.6614 9.12664 29.7637C9.12664 29.866 9.14889 29.9674 9.19221 30.0613C9.23554 30.1553 9.29909 30.2399 9.37915 30.3095C9.45923 30.379 9.55399 30.4319 9.65743 30.4642C9.76087 30.4966 9.87038 30.5075 9.97872 30.4963L10.0002 30.4941L10.0216 30.4963C10.1299 30.5075 10.2395 30.4966 10.3429 30.4642C10.4463 30.4319 10.5411 30.379 10.6212 30.3095C10.7012 30.2399 10.7648 30.1553 10.8081 30.0613C10.8514 29.9674 10.8737 29.866 10.8737 29.7637C10.8737 29.6614 10.8514 29.56 10.8081 29.4661C10.7648 29.3721 10.7012 29.2875 10.6212 29.2179C10.5411 29.1484 10.4463 29.0955 10.3429 29.0632C10.2395 29.0308 10.1299 29.0199 10.0216 29.0311L10.0002 29.0333L9.97872 29.0311ZM10.0002 32.2545C9.83217 32.2545 9.67242 32.3191 9.55571 32.4319C9.43924 32.5445 9.37516 32.6957 9.37516 32.8518C9.37516 33.0079 9.43924 33.159 9.55571 33.2716C9.67242 33.3845 9.83217 33.449 10.0002 33.449C10.1682 33.449 10.3279 33.3845 10.4446 33.2716C10.5611 33.159 10.6252 33.0079 10.6252 32.8518C10.6252 32.6957 10.5611 32.5445 10.4446 32.4319C10.3279 32.3191 10.1682 32.2545 10.0002 32.2545ZM6.87516 32.5231V34.7917H13.1252V34.1342H7.56961V32.5231H6.87516Z" fill="#81C3F2"/>
</g>
<rect x="17.5" y="42.5" width="15" height="15" rx="2" transform="rotate(90 17.5 42.5)" stroke="#D77842" stroke-width="1.5"/>
<path d="M7.5 54.1667V45.8333H10.5566C11.1443 45.8333 11.6449 45.954 12.0585 46.1955C12.4721 46.4342 12.7873 46.7665 13.0042 47.1924C13.2236 47.6156 13.3333 48.1038 13.3333 48.6572C13.3333 49.2106 13.2224 49.6989 13.0004 50.1221C12.7785 50.5452 12.4569 50.8748 12.0358 51.1108C11.6171 51.3468 11.1102 51.4648 10.515 51.4648H8.5668V50.0529H10.2502C10.5655 50.0529 10.8252 49.9946 11.0295 49.8779C11.2363 49.7586 11.3902 49.5944 11.491 49.3856C11.5944 49.174 11.6461 48.9312 11.6461 48.6572C11.6461 48.3805 11.5944 48.1391 11.491 47.9329C11.3902 47.7241 11.2363 47.5627 11.0295 47.4487C10.8227 47.3321 10.5604 47.2738 10.2427 47.2738H9.13802V54.1667H7.5Z" fill="#D77842"/>
<path d="M17.5 73.8333C17.5 74.9379 16.6046 75.8333 15.5 75.8333L4.5 75.8333C3.39543 75.8333 2.5 74.9379 2.5 73.8333L2.5 66.1667C2.5 65.0621 3.39543 64.1667 4.5 64.1667L7.47553 64.1667C8.11877 64.1667 8.72275 64.476 9.0986 64.9981L9.7007 65.8343C9.88862 66.0953 10.1906 66.25 10.5122 66.25L15.5 66.25C16.6046 66.25 17.5 67.1454 17.5 68.25L17.5 73.8333Z" stroke="#D5AA3D" stroke-width="1.5"/>
<rect x="11.6667" y="72.5" width="3.33333" height="0.833333" fill="#D5AA3D"/>
<rect x="11.6667" y="74.1667" width="3.33333" height="0.833333" fill="#D5AA3D"/>
<rect x="11.6667" y="70.8333" width="3.33333" height="0.833333" fill="#D5AA3D"/>
<rect x="11.6667" y="69.1667" width="3.33333" height="0.833333" fill="#D5AA3D"/>
<rect x="11.6667" y="67.5" width="3.33333" height="0.833333" fill="#D5AA3D"/>
<path d="M13.3333 66.6667L13.3333 75.8333" stroke="#D5AA3D" stroke-linecap="round"/>
<rect x="17.5" y="82.5" width="15" height="15" rx="2" transform="rotate(90 17.5 82.5)" stroke="#3CC996" stroke-width="1.5"/>
<path d="M5.83325 85.8333H8.2142L14.1666 94.1667H11.7856L5.83325 85.8333Z" fill="#3CC996"/>
<path d="M14.1667 85.8333H11.7858L5.83342 94.1667H8.21437L14.1667 85.8333Z" fill="#3CC996"/>
<rect x="17.5" y="102.5" width="15" height="15" rx="2" transform="rotate(90 17.5 102.5)" stroke="#EF6767" stroke-width="1.5"/>
<path fill-rule="evenodd" clip-rule="evenodd" d="M14.7093 112.948C14.9813 112.954 15.2509 112.894 15.495 112.773L15.4834 112.715C15.6124 112.55 15.7283 112.375 15.83 112.191C15.8434 112.013 15.8158 111.834 15.7492 111.668C15.4834 111.237 14.7901 111.062 13.7502 111.062C13.5733 111.062 13.4016 111.081 13.2226 111.101C13.0276 111.122 12.8237 111.144 12.5948 111.144C12.3227 110.991 12.0638 110.816 11.8206 110.62C11.2406 109.978 10.7999 109.221 10.5265 108.398V108.316C10.8731 107.188 11.1273 105.78 10.5265 105.175C10.3672 105.08 10.1901 105.021 10.0065 105H9.83322C9.48658 105 9.22082 105.349 9.13994 105.698C8.84424 106.649 8.90593 107.676 9.31325 108.584C9.05636 109.452 8.7358 110.3 8.35423 111.121C8.1158 111.512 7.92958 111.834 7.76242 112.123C7.64605 112.325 7.53893 112.51 7.42986 112.692C7.24087 112.787 7.07936 112.882 6.94345 112.962C6.83008 113.029 6.73453 113.085 6.6557 113.122C5.89248 113.501 5.3015 114.158 5.00339 114.961C4.98888 115.11 5.0212 115.261 5.09583 115.391V115.484L5.52335 115.74C5.60423 115.833 5.69667 115.833 5.86998 115.833C6.56326 115.833 7.42986 114.961 8.46977 113.122C8.56221 113.041 8.56221 113.041 8.64309 113.041C9.76404 112.659 10.9291 112.425 12.1095 112.342C12.9234 112.728 13.8098 112.934 14.7093 112.948ZM8.98973 111.47C9.31961 110.79 9.60899 110.09 9.85632 109.375V109.364C10.1959 110.093 10.6354 110.77 11.162 111.377C11.2596 111.487 11.3772 111.578 11.5086 111.644C10.527 111.793 9.56555 112.055 8.64309 112.424H8.46977C8.55643 112.249 8.64309 112.098 8.72975 111.947C8.81641 111.796 8.90307 111.644 8.98973 111.47ZM13.496 111.784C14.7093 111.784 15.0559 111.993 15.1483 112.075C15.1406 112.093 15.1397 112.114 15.1459 112.132C15.1521 112.151 15.1649 112.167 15.1819 112.177C15.199 112.187 15.219 112.191 15.2384 112.187C15.2577 112.183 15.275 112.172 15.287 112.156V112.226H14.975C14.4013 112.186 13.8405 112.036 13.3227 111.784H13.496ZM6.75969 113.646C6.8924 113.539 7.04043 113.452 7.19876 113.39C6.64414 114.437 6.12419 114.961 5.60423 115.042C5.89299 114.504 6.28586 114.029 6.75969 113.646ZM9.94876 106.571C9.92168 106.841 9.86351 107.106 9.77544 107.362C9.60028 106.734 9.60028 106.07 9.77544 105.442C9.79689 105.442 9.81747 105.434 9.83263 105.418C9.8478 105.403 9.85632 105.382 9.85632 105.361L9.94876 105.442V105.524C10.0369 105.812 10.0369 106.12 9.94876 106.408V106.571Z" fill="#EF6767"/>
<rect x="17.5" y="137.5" width="15" height="15" rx="2" transform="rotate(-180 17.5 137.5)" stroke="#C37FDB" stroke-width="1.5"/>
<path d="M2.5 133.333L6.92714 129.539C7.72062 128.859 8.90396 128.904 9.64294 129.643L13.3333 133.333" stroke="#C37FDB" stroke-width="1.5" stroke-linecap="round"/>
<path d="M11.6667 131.667L12.7525 130.581C13.5336 129.8 14.7999 129.8 15.581 130.581L17.5001 132.5" stroke="#C37FDB" stroke-width="1.5" stroke-linecap="round"/>
<circle cx="13.3333" cy="126.667" r="0.833333" fill="#C37FDB"/>
<path d="M15 145V152.5C15 155.261 12.7614 157.5 10 157.5C7.23858 157.5 5 155.261 5 152.5L5 145C5 143.159 6.49238 141.667 8.33333 141.667C10.1743 141.667 11.6667 143.159 11.6667 145V152.5C11.6667 153.42 10.9205 154.167 10 154.167C9.07953 154.167 8.33333 153.42 8.33333 152.5V145" stroke="#8E8E8E" stroke-width="1.5" stroke-linecap="round"/>
<defs>
<clipPath id="clip0_149_2342">
<rect width="6.66667" height="10" fill="white" transform="translate(6.66675 25)"/>
</clipPath>
</defs>
</svg>
