<svg width="20" height="20" viewBox="0 0 20 20" fill="none" xmlns="http://www.w3.org/2000/svg">
<path d="M17.5 15.5C17.5 16.6046 16.6046 17.5 15.5 17.5L4.5 17.5C3.39543 17.5 2.5 16.6046 2.5 15.5L2.5 4.5C2.5 3.39543 3.39543 2.5 4.5 2.5L13.3382 2.5C13.8687 2.5 14.3774 2.71072 14.7525 3.08579L16.9142 5.24755C17.2893 5.62262 17.5 6.13133 17.5 6.66176L17.5 15.5Z" stroke="#FAFAFA" stroke-width="1.5"/>
<path d="M12.5 5.83331L12.5 6.58331C12.9142 6.58331 13.25 6.24753 13.25 5.83331L12.5 5.83331ZM7.5 5.83331L6.75 5.83331C6.75 6.24753 7.08579 6.58331 7.5 6.58331L7.5 5.83331ZM7.5 2.49998L7.5 1.74998L6.75 1.74998L6.75 2.49998L7.5 2.49998ZM12.5 2.49998L13.25 2.49998L13.25 1.74998L12.5 1.74998L12.5 2.49998ZM12.5 5.08331L7.5 5.08331L7.5 6.58331L12.5 6.58331L12.5 5.08331ZM8.25 5.83331L8.25 2.49998L6.75 2.49998L6.75 5.83331L8.25 5.83331ZM7.5 3.24998L12.5 3.24998L12.5 1.74998L7.5 1.74998L7.5 3.24998ZM11.75 2.49998L11.75 5.83331L13.25 5.83331L13.25 2.49998L11.75 2.49998Z" fill="#FAFAFA"/>
<circle r="2.5" transform="matrix(1 0 0 -1 10 11.6667)" stroke="#FAFAFA" stroke-width="1.5"/>
</svg>
