<svg width="24" height="24" viewBox="0 0 24 24" fill="none" xmlns="http://www.w3.org/2000/svg">
<path d="M21 15H20H21ZM21 5L22 5V5H21ZM5 17L5 18H5V17ZM8 17H9V16H8V17ZM9.70711 20.2929L10.4142 21H10.4142L9.70711 20.2929ZM13 17V16H12.5858L12.2929 16.2929L13 17ZM20 15C20 15.5523 19.5523 16 19 16V18C20.6569 18 22 16.6569 22 15H20ZM20 5L20 15H22L22 5L20 5ZM19 4C19.5523 4 20 4.44772 20 5H22C22 3.34315 20.6569 2 19 2V4ZM5 4H19V2H5V4ZM4 5C4 4.44772 4.44772 4 5 4V2C3.34315 2 2 3.34314 2 5H4ZM4 15V5H2V15H4ZM5 16C4.44772 16 4 15.5523 4 15H2C2 16.6569 3.34315 18 5 18L5 16ZM8 16H5V18H8V16ZM9 19.5858V17H7V19.5858H9ZM9 19.5858H9H7C7 21.3676 9.15429 22.2599 10.4142 21L9 19.5858ZM12.2929 16.2929L9 19.5858L10.4142 21L13.7071 17.7071L12.2929 16.2929ZM19 16H13V18H19V16Z" fill="white"/>
<path d="M8 8L16 8" stroke="white" stroke-width="2" stroke-linecap="round" stroke-linejoin="round"/>
<path d="M8 12L16 12" stroke="white" stroke-width="2" stroke-linecap="round" stroke-linejoin="round"/>
</svg>
