<svg width="24" height="24" viewBox="0 0 24 24" fill="none" xmlns="http://www.w3.org/2000/svg">
<path d="M17 16L19 16C20.1046 16 21 15.1046 21 14L21 10C21 8.89543 20.1046 8 19 8L5 8C3.89543 8 3 8.89543 3 10L3 14C3 15.1046 3.89543 16 5 16L7 16" stroke="white" stroke-width="2"/>
<path d="M17 19C17 20.1046 16.1046 21 15 21L9 21C7.89543 21 7 20.1046 7 19L7 16C7 14.8954 7.89543 14 9 14L15 14C16.1046 14 17 14.8954 17 16L17 19Z" stroke="white" stroke-width="2"/>
<path d="M7 5C7 3.89543 7.89543 3 9 3L15 3C16.1046 3 17 3.89543 17 5L17 8L7 8L7 5Z" stroke="white" stroke-width="2"/>
<circle cx="18" cy="12" r="1" fill="white"/>
</svg>
