<svg width="20" height="20" viewBox="0 0 20 20" fill="none" xmlns="http://www.w3.org/2000/svg">
<rect x="17.5" y="2.5" width="15" height="15" rx="2" transform="rotate(90 17.5 2.5)" stroke="#81C3F2" stroke-width="1.5"/>
<g clip-path="url(#clip0_108_1459)">
<path d="M9.99984 8.82385C9.86343 8.80973 9.72548 8.82352 9.59495 8.86431C9.46442 8.90511 9.34423 8.97201 9.24219 9.06065C9.14016 9.14929 9.05856 9.2577 9.0027 9.37882C8.94684 9.49995 8.91798 9.63108 8.91798 9.76369C8.91798 9.89631 8.94684 10.0274 9.0027 10.1486C9.05856 10.2697 9.14016 10.3781 9.24219 10.4667C9.34423 10.5554 9.46442 10.6223 9.59495 10.6631C9.72548 10.7039 9.86343 10.7177 9.99984 10.7035C10.1362 10.7177 10.2742 10.7039 10.4047 10.6631C10.5353 10.6223 10.6554 10.5554 10.7575 10.4667C10.8595 10.3781 10.9411 10.2697 10.997 10.1486C11.0528 10.0274 11.0817 9.89631 11.0817 9.76369C11.0817 9.63108 11.0528 9.49995 10.997 9.37882C10.9411 9.2577 10.8595 9.14929 10.7575 9.06065C10.6554 8.97201 10.5353 8.90511 10.4047 8.86431C10.2742 8.82352 10.1362 8.80973 9.99984 8.82385ZM9.99984 7.74973C10.5261 7.78691 11.0183 8.01523 11.3775 8.38883C11.7368 8.76243 11.9365 9.25361 11.9365 9.76369C11.9365 10.2738 11.7368 10.765 11.3775 11.1386C11.0183 11.5122 10.5261 11.7405 9.99984 11.7777C9.47359 11.7405 8.98139 11.5122 8.62214 11.1386C8.26288 10.765 8.06319 10.2738 8.06319 9.76369C8.06319 9.25361 8.26288 8.76243 8.62214 8.38883C8.98139 8.01523 9.47359 7.78691 9.99984 7.74973ZM9.99984 12.0462C10.2209 12.0462 10.4328 12.1311 10.5891 12.2821C10.7454 12.4332 10.8332 12.6381 10.8332 12.8518C10.8332 13.0654 10.7454 13.2703 10.5891 13.4214C10.4328 13.5725 10.2209 13.6574 9.99984 13.6574C9.77882 13.6574 9.56686 13.5725 9.41058 13.4214C9.2543 13.2703 9.1665 13.0654 9.1665 12.8518C9.1665 12.6381 9.2543 12.4332 9.41058 12.2821C9.56686 12.1311 9.77882 12.0462 9.99984 12.0462ZM7.77762 12.3147V13.9259H13.3332V15H6.6665V12.3147H7.77762ZM13.3332 7.30934H6.6665V6.23523H13.3332V7.30934ZM9.43317 7.30934V5H10.5443V7.28786L9.43317 7.30934Z" fill="#81C3F2"/>
<path fill-rule="evenodd" clip-rule="evenodd" d="M9.22467 4.79169H10.7525V6.02692H13.5413V7.5177H9.43502L9.22467 7.52177V7.5177H6.45801V6.02692H9.22467V4.79169ZM9.22467 6.44358H6.87467V7.10103H9.22467V6.44358ZM10.7525 7.10103H13.1247V6.44358H10.7525V7.10103ZM10.3358 6.44358H9.64134V7.09697L10.3358 7.08354V6.44358ZM10.3358 6.02692H9.64134V5.20835H10.3358V6.02692ZM9.99967 7.5409L10.0144 7.54194C10.591 7.58268 11.1318 7.83294 11.5275 8.24445C11.9234 8.65616 12.1447 9.19883 12.1447 9.76372C12.1447 10.3286 11.9234 10.8713 11.5275 11.283C11.2253 11.5973 10.8384 11.8175 10.4156 11.9222C10.5328 11.9719 10.6409 12.0427 10.7337 12.1324C10.9298 12.3219 11.0413 12.5806 11.0413 12.8518C11.0413 13.123 10.9298 13.3817 10.7337 13.5712C10.6753 13.6277 10.6109 13.6766 10.5419 13.7176H13.5413V15.2084H6.45801V12.1064H7.98579V13.7176H9.45749C9.38849 13.6766 9.32402 13.6277 9.26562 13.5712C9.06953 13.3817 8.95801 13.123 8.95801 12.8518C8.95801 12.5806 9.06953 12.3219 9.26562 12.1324C9.35841 12.0427 9.46653 11.9719 9.58377 11.9222C9.16091 11.8175 8.77404 11.5973 8.4718 11.283C8.0759 10.8713 7.8547 10.3286 7.8547 9.76372C7.8547 9.19883 8.0759 8.65616 8.4718 8.24445C8.86751 7.83294 9.4083 7.58268 9.98499 7.54194L9.99967 7.5409ZM9.99967 7.95866C9.52943 7.99544 9.09162 8.20102 8.77214 8.53325C8.44954 8.86874 8.27137 9.30843 8.27137 9.76372C8.27137 10.219 8.44954 10.6587 8.77214 10.9942C9.09162 11.3264 9.52943 11.532 9.99967 11.5688C10.4699 11.532 10.9077 11.3264 11.2272 10.9942C11.5498 10.6587 11.728 10.219 11.728 9.76372C11.728 9.30843 11.5498 8.86874 11.2272 8.53325C10.9077 8.20102 10.4699 7.99544 9.99967 7.95866ZM9.99967 8.61461C10.1571 8.60112 10.3159 8.61837 10.4667 8.66549C10.6243 8.71475 10.77 8.79568 10.8939 8.9034C11.018 9.01113 11.1176 9.1433 11.186 9.2916C11.2544 9.43991 11.2899 9.6008 11.2899 9.76372C11.2899 9.92664 11.2544 10.0875 11.186 10.2358C11.1176 10.3841 11.018 10.5163 10.8939 10.624C10.77 10.7318 10.6243 10.8127 10.4667 10.8619C10.3159 10.9091 10.1571 10.9263 9.99967 10.9128C9.84221 10.9263 9.68341 10.9091 9.53264 10.8619C9.37501 10.8127 9.22939 10.7318 9.1054 10.624C8.98139 10.5163 8.88174 10.3841 8.81335 10.2358C8.74496 10.0875 8.70948 9.92664 8.70948 9.76372C8.70948 9.6008 8.74496 9.43991 8.81335 9.2916C8.88174 9.1433 8.98139 9.01113 9.1054 8.9034C9.22939 8.79568 9.37501 8.71475 9.53264 8.66549C9.68341 8.61837 9.84221 8.60112 9.99967 8.61461ZM9.97823 9.03109C9.86989 9.01988 9.76039 9.03085 9.65694 9.06318C9.5535 9.09551 9.45874 9.14838 9.37866 9.21794C9.2986 9.2875 9.23505 9.37213 9.19172 9.46609C9.14841 9.56002 9.12615 9.6614 9.12615 9.76372C9.12615 9.86603 9.14841 9.96741 9.19172 10.0613C9.23505 10.1553 9.2986 10.2399 9.37866 10.3095C9.45874 10.3791 9.5535 10.4319 9.65694 10.4642C9.76039 10.4966 9.86989 10.5076 9.97823 10.4963L9.99967 10.4941L10.0211 10.4963C10.1295 10.5076 10.239 10.4966 10.3424 10.4642C10.4458 10.4319 10.5406 10.3791 10.6207 10.3095C10.7007 10.2399 10.7643 10.1553 10.8076 10.0613C10.8509 9.96741 10.8732 9.86603 10.8732 9.76372C10.8732 9.6614 10.8509 9.56002 10.8076 9.46609C10.7643 9.37213 10.7007 9.2875 10.6207 9.21794C10.5406 9.14838 10.4458 9.09551 10.3424 9.06318C10.239 9.03085 10.1295 9.01988 10.0211 9.03109L9.99967 9.03331L9.97823 9.03109ZM9.99967 12.2545C9.83168 12.2545 9.67193 12.3191 9.55522 12.4319C9.43875 12.5445 9.37467 12.6957 9.37467 12.8518C9.37467 13.0079 9.43875 13.159 9.55522 13.2716C9.67193 13.3845 9.83168 13.449 9.99967 13.449C10.1677 13.449 10.3274 13.3845 10.4441 13.2716C10.5606 13.159 10.6247 13.0079 10.6247 12.8518C10.6247 12.6957 10.5606 12.5445 10.4441 12.4319C10.3274 12.3191 10.1677 12.2545 9.99967 12.2545ZM6.87467 12.5231V14.7917H13.1247V14.1342H7.56912V12.5231H6.87467Z" fill="#81C3F2"/>
</g>
<defs>
<clipPath id="clip0_108_1459">
<rect width="6.66667" height="10" fill="white" transform="translate(6.6665 5)"/>
</clipPath>
</defs>
</svg>
