<svg width="18" height="18" viewBox="0 0 18 18" fill="none" xmlns="http://www.w3.org/2000/svg">
<path d="M3.29289 11.7071L3.82322 12.2374L3.29289 11.7071ZM6.29289 14.7071L6.82322 15.2374L6.29289 14.7071ZM14.9142 2.91421L14.3839 3.44454L14.9142 2.91421ZM14.3839 3.44454L14.5555 3.61612L15.6161 2.55546L15.4445 2.38388L14.3839 3.44454ZM14.5555 5.38388L5.76256 14.1768L6.82322 15.2374L15.6161 6.44454L14.5555 5.38388ZM5.58579 14.25H4V15.75H5.58579V14.25ZM3.75 14V12.4142H2.25V14H3.75ZM3.82322 12.2374L12.6161 3.44454L11.5555 2.38388L2.76256 11.1768L3.82322 12.2374ZM3.75 12.4142C3.75 12.3479 3.77634 12.2843 3.82322 12.2374L2.76256 11.1768C2.43437 11.505 2.25 11.9501 2.25 12.4142H3.75ZM4 14.25C3.86193 14.25 3.75 14.1381 3.75 14H2.25C2.25 14.9665 3.0335 15.75 4 15.75V14.25ZM5.76256 14.1768C5.71568 14.2237 5.65209 14.25 5.58579 14.25V15.75C6.04991 15.75 6.49503 15.5656 6.82322 15.2374L5.76256 14.1768ZM14.5555 3.61612C15.0436 4.10427 15.0436 4.89573 14.5555 5.38388L15.6161 6.44454C16.6901 5.3706 16.6901 3.6294 15.6161 2.55546L14.5555 3.61612ZM15.4445 2.38388C14.3706 1.30994 12.6294 1.30994 11.5555 2.38388L12.6161 3.44454C13.1043 2.95639 13.8957 2.95639 14.3839 3.44454L15.4445 2.38388Z" fill="#8E8E8E"/>
<path d="M11.25 3.75L14.25 6.75" stroke="#8E8E8E" stroke-width="1.5" stroke-linecap="round"/>
</svg>
