<svg width="20" height="20" viewBox="0 0 20 20" fill="none" xmlns="http://www.w3.org/2000/svg">
<rect x="17.5" y="2.5" width="15" height="15" rx="2" transform="rotate(90 17.5 2.5)" stroke="#D77842" stroke-width="1.5"/>
<path d="M7.5 14.1666V5.83331H10.5566C11.1443 5.83331 11.6449 5.95403 12.0585 6.19546C12.4721 6.43417 12.7873 6.76647 13.0042 7.19236C13.2236 7.61554 13.3333 8.10382 13.3333 8.65721C13.3333 9.21059 13.2224 9.69887 13.0004 10.122C12.7785 10.5452 12.4569 10.8748 12.0358 11.1108C11.6171 11.3468 11.1102 11.4648 10.515 11.4648H8.5668V10.0529H10.2502C10.5655 10.0529 10.8252 9.99455 11.0295 9.87791C11.2363 9.75855 11.3902 9.59443 11.491 9.38556C11.5944 9.17397 11.6461 8.93119 11.6461 8.65721C11.6461 8.38051 11.5944 8.13909 11.491 7.93292C11.3902 7.72405 11.2363 7.56264 11.0295 7.44871C10.8227 7.33207 10.5604 7.27374 10.2427 7.27374H9.13802V14.1666H7.5Z" fill="#D77842"/>
</svg>
