<svg width="20" height="20" viewBox="0 0 20 20" fill="none" xmlns="http://www.w3.org/2000/svg">
<path d="M3.62623 13.0404L4.15656 13.5707L3.62623 13.0404ZM6.95956 16.3737L7.48989 16.9041L6.95956 16.3737ZM15.8839 3.61117L16.3888 4.11608L17.4495 3.05542L16.9445 2.55051L15.8839 3.61117ZM16.3888 5.88384L6.42923 15.8434L7.48989 16.9041L17.4495 6.9445L16.3888 5.88384ZM6.25246 15.9166H4.33334V17.4166H6.25246V15.9166ZM4.08334 15.6666V13.7475H2.58334V15.6666H4.08334ZM4.15656 13.5707L14.1161 3.61117L13.0555 2.55051L3.0959 12.5101L4.15656 13.5707ZM4.08334 13.7475C4.08334 13.6812 4.10967 13.6176 4.15656 13.5707L3.0959 12.5101C2.76771 12.8383 2.58334 13.2834 2.58334 13.7475H4.08334ZM4.33334 15.9166C4.19526 15.9166 4.08334 15.8047 4.08334 15.6666H2.58334C2.58334 16.6331 3.36684 17.4166 4.33334 17.4166V15.9166ZM6.42923 15.8434C6.38235 15.8903 6.31876 15.9166 6.25246 15.9166V17.4166C6.71658 17.4166 7.1617 17.2323 7.48989 16.9041L6.42923 15.8434ZM16.3888 4.11608C16.8769 4.60423 16.8769 5.39569 16.3888 5.88384L17.4495 6.9445C18.5234 5.87056 18.5234 4.12936 17.4495 3.05542L16.3888 4.11608ZM16.9445 2.55051C15.8706 1.47657 14.1294 1.47657 13.0555 2.55051L14.1161 3.61117C14.6043 3.12301 15.3957 3.12301 15.8839 3.61117L16.9445 2.55051Z" fill="white" fill-opacity="0.4"/>
<path d="M12.5 4.16669L15.8333 7.50002" stroke="white" stroke-opacity="0.4" stroke-width="1.5" stroke-linecap="round"/>
</svg>
