<svg width="20" height="20" viewBox="0 0 20 20" fill="none" xmlns="http://www.w3.org/2000/svg">
<path d="M3.62615 13.0404L4.15648 13.5708L3.62615 13.0404ZM6.95948 16.3738L7.48981 16.9041L6.95948 16.3738ZM15.8838 3.61122L16.3887 4.11612L17.4494 3.05546L16.9445 2.55056L15.8838 3.61122ZM16.3887 5.88389L6.42915 15.8434L7.48981 16.9041L17.4494 6.94455L16.3887 5.88389ZM6.25237 15.9167H4.33325V17.4167H6.25237V15.9167ZM4.08325 15.6667V13.7476H2.58325V15.6667H4.08325ZM4.15648 13.5708L14.116 3.61122L13.0554 2.55056L3.09582 12.5101L4.15648 13.5708ZM4.08325 13.7476C4.08325 13.6812 4.10959 13.6177 4.15648 13.5708L3.09582 12.5101C2.76763 12.8383 2.58325 13.2834 2.58325 13.7476H4.08325ZM4.33325 15.9167C4.19518 15.9167 4.08325 15.8047 4.08325 15.6667H2.58325C2.58325 16.6332 3.36675 17.4167 4.33325 17.4167V15.9167ZM6.42915 15.8434C6.38226 15.8903 6.31868 15.9167 6.25237 15.9167V17.4167C6.7165 17.4167 7.16162 17.2323 7.48981 16.9041L6.42915 15.8434ZM16.3887 4.11612C16.8769 4.60428 16.8769 5.39573 16.3887 5.88389L17.4494 6.94455C18.5233 5.87061 18.5233 4.1294 17.4494 3.05546L16.3887 4.11612ZM16.9445 2.55056C15.8705 1.47661 14.1293 1.47661 13.0554 2.55056L14.116 3.61122C14.6042 3.12306 15.3956 3.12306 15.8838 3.61122L16.9445 2.55056Z" fill="#CACACA"/>
<path d="M12.5 4.16667L15.8333 7.50001" stroke="#CACACA" stroke-width="1.5" stroke-linecap="round"/>
</svg>
