<svg width="16" height="16" viewBox="0 0 16 16" fill="none" xmlns="http://www.w3.org/2000/svg">
<g clip-path="url(#clip0_956_9715)">
<path d="M3.71063 5.27274C4.36882 5.27274 4.90238 4.73719 4.90238 4.07655C4.90238 3.41592 4.36882 2.88037 3.71063 2.88037C3.05245 2.88037 2.51889 3.41592 2.51889 4.07655C2.51889 4.73719 3.05245 5.27274 3.71063 5.27274Z" fill="#3EDDDD"/>
<path d="M10.6795 3.8685C11.7438 3.8685 12.6065 3.00251 12.6065 1.93425C12.6065 0.865994 11.7438 0 10.6795 0C9.61516 0 8.75238 0.865994 8.75238 1.93425C8.75238 3.00251 9.61516 3.8685 10.6795 3.8685Z" fill="#3EDDDD"/>
<path d="M8.10154 15.9999C9.16584 15.9999 10.0286 15.1339 10.0286 14.0656C10.0286 12.9973 9.16584 12.1313 8.10154 12.1313C7.03725 12.1313 6.17447 12.9973 6.17447 14.0656C6.17447 15.1339 7.03725 15.9999 8.10154 15.9999Z" fill="#3EDDDD"/>
<path fill-rule="evenodd" clip-rule="evenodd" d="M4.6498 4.81251C4.59146 4.88737 4.52444 4.95507 4.45025 5.01409L5.99861 6.56245C5.68052 6.9545 5.48981 7.45482 5.48981 7.99985C5.48981 8.09506 5.49563 8.18891 5.50693 8.28106L3.1046 8.76152C2.94412 8.16621 2.40217 7.72825 1.7583 7.72825C0.98809 7.72825 0.363708 8.35496 0.363708 9.12804C0.363708 9.90112 0.98809 10.5278 1.7583 10.5278C2.52852 10.5278 3.1529 9.90112 3.1529 9.12804C3.1529 9.09902 3.15202 9.07022 3.15028 9.04164L5.55892 8.55991C5.80494 9.53669 6.67962 10.2622 7.72562 10.2774L7.8313 12.1501C7.91958 12.1377 8.00979 12.1313 8.10149 12.1313C8.10577 12.1313 8.11005 12.1313 8.11432 12.1313L8.00895 10.264C9.09869 10.1443 9.95644 9.25016 10.0243 8.14161H13.0911V7.85797H10.0242C9.97412 7.03917 9.49303 6.33736 8.80582 5.9782L9.9355 3.71883C9.84782 3.68197 9.76342 3.63878 9.68288 3.58984L8.54641 5.86279C8.30117 5.77174 8.03597 5.72201 7.75919 5.72201C7.15079 5.72201 6.5983 5.96232 6.19081 6.35353L4.6498 4.81251ZM16 7.97437C16 8.78025 15.3491 9.43354 14.5462 9.43354C13.7433 9.43354 13.0925 8.78025 13.0925 7.97437C13.0925 7.16849 13.7433 6.5152 14.5462 6.5152C15.3491 6.5152 16 7.16849 16 7.97437Z" fill="#0AA9E8"/>
</g>
<defs>
<clipPath id="clip0_956_9715">
<rect width="16" height="16" fill="white"/>
</clipPath>
</defs>
</svg>
